<?xml version="1.0" encoding="UTF-8"?>
<svg id="Layer_1" data-name="Layer 1" xmlns="http://www.w3.org/2000/svg" viewBox="0 0 512.71 512.71">
  <defs>
    <style>
      .cls-1, .cls-2, .cls-3, .cls-4, .cls-5 {
        fill: none;
        stroke-miterlimit: 10;
      }

      .cls-1, .cls-2, .cls-4, .cls-5 {
        stroke: #fff;
      }

      .cls-2 {
        stroke-linecap: square;
      }

      .cls-2, .cls-5 {
        stroke-width: 6px;
      }

      .cls-3 {
        stroke: #89c3ea;
      }

      .cls-4 {
        stroke-width: 3px;
      }

      .cls-6 {
        fill: #1c75bc;
      }
    </style>
  </defs>
  <rect class="cls-6" x=".35" y=".35" width="512" height="512"/>
  <g>
    <line class="cls-3" x1=".35" y1="512.36" x2="512.36" y2=".35"/>
    <line class="cls-3" x1=".35" y1=".35" x2="512.35" y2="512.35"/>
    <circle class="cls-3" cx="256.35" cy="256.35" r="223.7"/>
    <line class="cls-3" x1="256.35" y1="512.35" x2="256.36" y2=".35"/>
    <line class="cls-3" x1=".35" y1="256.35" x2="512.35" y2="256.36"/>
    <circle class="cls-3" cx="256.73" cy="256.35" r="90.87"/>
    <circle class="cls-3" cx="256.35" cy="256.35" r="73.66"/>
    <line class="cls-3" x1="124.17" y1="512.35" x2="124.17" y2=".35"/>
    <line class="cls-3" x1="388.03" y1="512.35" x2="388.03" y2=".36"/>
    <line class="cls-3" x1="480.06" y1="512.36" x2="480.06" y2=".35"/>
    <line class="cls-3" x1="32.65" y1="512.35" x2="32.65" y2=".36"/>
    <line class="cls-3" x1="512.35" y1="32.65" x2=".35" y2="32.65"/>
    <line class="cls-3" x1="512.35" y1="480.06" x2=".35" y2="480.06"/>
    <line class="cls-3" x1="512.35" y1="126.31" x2=".35" y2="126.31"/>
    <line class="cls-3" x1="512.35" y1="388.35" x2=".35" y2="388.35"/>
  </g>
  <g>
    <g>
      <line class="cls-2" x1="114.47" y1="108.73" x2="163.06" y2="108.73"/>
      <line class="cls-2" x1="163.06" y1="108.73" x2="163.06" y2="361.17"/>
      <line class="cls-2" x1="163.06" y1="361.17" x2="305.28" y2="361.17"/>
      <line class="cls-2" x1="305.28" y1="361.17" x2="305.28" y2="404.43"/>
      <line class="cls-2" x1="305.28" y1="404.43" x2="114.47" y2="404.43"/>
      <line class="cls-2" x1="114.47" y1="404.43" x2="114.47" y2="108.73"/>
    </g>
    <rect class="cls-5" x="350.32" y="108.73" width="48.59" height="295.7"/>
    <line class="cls-4" x1="163.06" y1="108.73" x2="114.17" y2="157.62"/>
    <line class="cls-4" x1="163.21" y1="133.17" x2="114.32" y2="182.06"/>
    <line class="cls-4" x1="138.62" y1="108.73" x2="114.32" y2="133.02"/>
    <line class="cls-4" x1="163.06" y1="157.77" x2="114.17" y2="206.65"/>
    <line class="cls-4" x1="163.21" y1="182.21" x2="114.32" y2="231.1"/>
    <line class="cls-4" x1="162.99" y1="207.54" x2="114.1" y2="256.43"/>
    <line class="cls-4" x1="163.14" y1="231.99" x2="114.25" y2="280.88"/>
    <line class="cls-4" x1="162.99" y1="256.58" x2="114.1" y2="305.47"/>
    <line class="cls-4" x1="163.14" y1="281.02" x2="114.25" y2="329.91"/>
    <line class="cls-4" x1="163.14" y1="304.28" x2="114.25" y2="353.17"/>
    <line class="cls-4" x1="163.28" y1="328.73" x2="114.39" y2="377.62"/>
    <line class="cls-4" x1="163.14" y1="353.32" x2="114.25" y2="402.21"/>
    <line class="cls-4" x1="280.28" y1="361.17" x2="237.02" y2="404.43"/>
    <line class="cls-4" x1="305.28" y1="361.17" x2="262.02" y2="404.43"/>
    <line class="cls-4" x1="305.28" y1="384.88" x2="285.73" y2="404.43"/>
    <line class="cls-4" x1="255.91" y1="361.17" x2="212.65" y2="404.43"/>
    <line class="cls-4" x1="231.51" y1="361.17" x2="188.25" y2="404.43"/>
    <line class="cls-4" x1="209.6" y1="361.17" x2="166.34" y2="404.43"/>
    <line class="cls-4" x1="185.28" y1="361.17" x2="142.02" y2="404.43"/>
    <line class="cls-4" x1="399.06" y1="108.73" x2="350.17" y2="157.62"/>
    <line class="cls-4" x1="399.06" y1="133.17" x2="350.17" y2="182.06"/>
    <line class="cls-4" x1="399.06" y1="159.49" x2="350.17" y2="208.38"/>
    <line class="cls-4" x1="399.06" y1="183.93" x2="350.17" y2="232.82"/>
    <line class="cls-4" x1="399.06" y1="210.25" x2="350.17" y2="259.14"/>
    <line class="cls-4" x1="399.06" y1="234.69" x2="350.17" y2="283.58"/>
    <line class="cls-4" x1="399.06" y1="261.01" x2="350.17" y2="309.89"/>
    <line class="cls-4" x1="399.06" y1="285.45" x2="350.17" y2="334.34"/>
    <line class="cls-4" x1="399.06" y1="311.77" x2="350.17" y2="360.65"/>
    <line class="cls-4" x1="399.06" y1="336.21" x2="350.17" y2="385.1"/>
    <line class="cls-4" x1="399.06" y1="362.52" x2="357.15" y2="404.43"/>
    <line class="cls-4" x1="374.62" y1="108.73" x2="350.32" y2="133.02"/>
    <line class="cls-1" x1="399.06" y1="386.97" x2="381.6" y2="404.43"/>
  </g>
</svg>